<svg width="80" height="80" viewBox="0 0 80 80" fill="none" xmlns="http://www.w3.org/2000/svg">
<circle cx="40" cy="40" r="40" fill="white"/>
<path fill-rule="evenodd" clip-rule="evenodd" d="M37.1654 15.3016C34.8079 15.8105 32.9782 16.9482 31.3485 18.9184C30.4178 20.0437 29.8444 21.1168 29.5134 22.353C29.3306 23.0355 29.2963 23.4378 29.2967 24.888C29.2971 26.5246 29.3148 26.6818 29.6479 27.9968L29.9987 29.3819L29.7228 29.4375C29.3379 29.5152 28.7307 30.0813 28.5128 30.5654C27.7908 32.1697 29.2759 35.557 31.0952 36.4555C31.3951 36.6036 31.6405 36.7828 31.6405 36.8536C31.6405 37.1769 32.1859 38.8324 32.5018 39.4677C32.9091 40.2869 33.5915 41.2142 34.0934 41.6309L34.4453 41.923L33.9721 42.8356L33.4989 43.7482L30.887 44.5193C29.4506 44.9433 28.0492 45.3707 27.773 45.4691C23.9746 46.8214 21.6689 48.4944 20.638 50.6462C20.0043 51.969 19.9761 52.251 20.0088 56.9639C20.0378 61.1576 20.0397 61.1928 20.2754 61.7189C20.5633 62.3616 21.251 63.0294 21.7116 63.1133C21.8961 63.147 29.89 63.1613 39.4759 63.145L56.9047 63.1155L57.8782 62.8385C62.023 61.6593 65.069 58.7693 66.403 54.7499C68.2674 49.1327 65.6348 42.7993 60.3201 40.1162C55.1088 37.4853 48.6351 39.0387 45.2475 43.733C45.0851 43.9579 44.9911 44.0031 44.791 43.9524C44.5783 43.8985 44.4862 43.7369 44.2002 42.9157L43.8615 41.9429L44.2345 41.6408C45.2334 40.832 46.2822 38.9227 46.5583 37.4108C46.677 36.7607 46.7204 36.6983 47.2388 36.4332C48.3003 35.8902 49.3092 34.4706 49.8126 32.8118C50.311 31.1697 49.8474 29.8723 48.6028 29.4262C48.161 29.2678 48.115 29.223 48.1607 28.9952C48.4542 27.5322 48.5316 22.6564 48.2799 21.4911C48.0766 20.5503 47.4792 19.296 46.8673 18.5253C45.9768 17.4037 44.364 16.2849 42.8153 15.7143C41.1154 15.0881 38.9029 14.9265 37.1654 15.3016ZM41.3645 16.8309C44.0401 17.4639 46.1587 19.3154 46.7645 21.55C46.9589 22.2669 47.1035 25.7188 46.9347 25.6135C46.8778 25.578 46.8002 25.4238 46.7621 25.2709C46.6304 24.7412 45.9993 23.4786 45.5981 22.9423C45.2749 22.5102 45.138 22.4037 44.9053 22.4037C44.4357 22.4037 44.3026 22.5018 44.0287 23.0501C43.4032 24.3016 42.7307 24.9031 41.797 25.0462C41.5428 25.0851 40.8462 25.0773 40.249 25.0288C39.0448 24.9312 38.5894 25.0335 38.3677 25.4516C38.1985 25.7707 38.3039 26.3708 38.6084 26.8232C38.7511 27.0352 38.8508 27.2258 38.8301 27.2467C38.7188 27.3591 37.8985 26.9802 37.5148 26.6392C37.0498 26.2261 36.6878 25.5607 36.2035 24.2289C36.0208 23.7265 35.8002 23.3393 35.5534 23.0881C35.2031 22.7314 35.1421 22.7079 34.5665 22.7079C32.9916 22.7079 31.7915 23.7438 31.1289 25.6753C30.8994 26.3445 30.8429 26.436 30.781 26.2388C30.6547 25.8375 30.718 23.9062 30.885 23.0585C31.1086 21.9247 31.6834 20.8005 32.5666 19.7696C33.5288 18.6467 34.2986 18.0274 35.4075 17.4844C37.3246 16.5456 39.2607 16.3332 41.3645 16.8309ZM34.7979 24.6936C35.415 26.2789 35.5941 26.6598 35.9372 27.1163C36.8192 28.29 37.9363 28.8003 39.6238 28.8003C40.7347 28.8003 41.1134 28.7081 41.2779 28.3978C41.4803 28.016 41.3888 27.7673 40.8275 27.1733L40.2705 26.5838L41.3587 26.5463C42.3441 26.5122 42.5099 26.4774 43.112 26.1782C43.5623 25.9544 43.9601 25.6481 44.344 25.2295C44.6559 24.8895 44.9287 24.6292 44.9503 24.6511C44.972 24.673 45.1312 25.1172 45.3042 25.6384C45.6688 26.7367 46.038 28.499 46.214 29.9806C46.3544 31.1613 46.5076 31.4282 47.0453 31.4282C47.2795 31.4282 47.4572 31.3407 47.6629 31.124C48.5743 30.1638 48.8192 31.5951 48.0332 33.2883C47.5199 34.3937 46.8204 35.1434 46.2099 35.2418C45.5598 35.3468 45.3373 35.5863 45.2567 36.268C44.9104 39.1957 43.2798 41.1948 40.8065 41.7239C39.9304 41.9113 38.4093 41.909 37.517 41.7191C35.3874 41.2658 33.8585 39.6693 33.2485 37.2619C33.1376 36.824 33.0468 36.3113 33.0468 36.1225C33.0468 35.7025 32.6694 35.2814 32.293 35.2814C31.6483 35.2814 30.798 34.4475 30.2728 33.2998C29.8042 32.276 29.6648 31.6335 29.8261 31.2406C30.0006 30.8152 30.2052 30.772 30.6318 31.0705C31.0985 31.3969 31.4404 31.3962 31.7458 31.0679C31.9705 30.8265 31.9913 30.7058 32.0557 29.2681C32.1873 26.3272 32.8245 24.7038 34.0149 24.2762C34.2284 24.1996 34.4481 24.15 34.5034 24.1659C34.5586 24.1819 34.6911 24.4194 34.7979 24.6936ZM57.6078 40.6504C59.4689 41.1661 61.0896 42.1161 62.4021 43.4603C63.2834 44.3629 63.6196 44.8019 64.142 45.7317C64.6868 46.7015 65.0603 47.72 65.2997 48.8898C65.5925 50.32 65.5315 52.431 65.158 53.7867C63.4818 59.8712 57.0709 63.2134 51.2552 61.0348C49.2537 60.285 47.3629 58.8014 46.1933 57.0629C45.6147 56.2029 44.9523 54.746 44.7039 53.7867C44.033 51.1967 44.2812 48.6963 45.4488 46.2832C46.8792 43.3271 49.5061 41.2578 52.7358 40.5431C53.9463 40.2752 56.4535 40.3304 57.6078 40.6504ZM36.2613 42.8975C37.8894 43.5278 40.1379 43.549 41.9057 42.9508L42.5775 42.7235L42.9604 43.8442C43.3349 44.9404 43.3528 44.9695 43.7721 45.166C44.0079 45.2765 44.1793 45.4134 44.1531 45.4702C44.127 45.527 43.9423 45.9841 43.7429 46.486C43.3432 47.4917 42.8871 48.0149 41.937 48.5575C41.0224 49.0799 40.4376 49.2206 39.1745 49.2222C38.2263 49.2235 37.8991 49.1819 37.349 48.9899C36.4291 48.6691 35.3894 47.9078 34.8045 47.1269C34.3426 46.5102 33.8535 45.6002 33.8514 45.3536C33.8508 45.2885 34.02 45.1516 34.2271 45.0494C34.548 44.8911 34.6857 44.7022 35.1563 43.7738C35.4602 43.1744 35.7088 42.6838 35.7088 42.6838C35.7088 42.6838 35.9575 42.7798 36.2613 42.8975ZM52.6992 45.0802L52.4345 45.3476V47.1082V48.8689H50.6399H48.8455L48.5806 49.1362L48.3158 49.4035V51.2011V52.9986L48.5806 53.2659L48.8455 53.5332H50.6399H52.4345V55.3446V57.1559L52.6992 57.4233L52.9641 57.6906H54.7632C57.1968 57.6906 57.0553 57.8342 57.0553 55.363V53.5332H58.8178C61.2094 53.5332 61.0735 53.6738 61.0735 51.2011C61.0735 48.7283 61.2094 48.8689 58.8178 48.8689H57.0553V47.0898C57.0553 44.6776 57.1916 44.8129 54.7632 44.8129H52.9641L52.6992 45.0802ZM32.5398 46.055C33.0014 47.6146 34.5037 49.3116 36.1063 50.0836C37.1267 50.5751 37.8825 50.7352 39.1745 50.7336C40.6173 50.7318 41.2389 50.5727 42.816 49.8014C42.8574 49.7812 42.8913 50.3328 42.8913 51.0273C42.8913 52.487 43.0668 53.6335 43.4767 54.8514C44.3433 57.4266 46.0474 59.6803 48.2209 61.1256L49.1547 61.7466H35.635H22.1152L21.8625 61.4434C21.4253 60.9189 21.3735 60.3263 21.4172 56.3401C21.4548 52.9122 21.4718 52.628 21.6746 52.0122C22.4164 49.7606 24.6237 48.0925 28.6364 46.7512C29.4873 46.4668 32.1952 45.6509 32.3529 45.6314C32.3855 45.6274 32.4697 45.8181 32.5398 46.055ZM55.649 47.9932V49.7538L55.9138 50.0212L56.1787 50.2885H57.9229H59.6671V51.2011V52.1136H57.9229H56.1787L55.9138 52.3809L55.649 52.6483V54.4596V56.271H54.7449H53.8408V54.4413C53.8408 51.9686 53.9845 52.1136 51.5349 52.1136H49.7222V51.2011V50.2885H51.5349C53.9792 50.2885 53.8408 50.4251 53.8408 48.0115V46.2325H54.7449H55.649V47.9932Z" fill="#0C0C5C" stroke="#0C0C5C" stroke-width="0.5"/>
</svg>
