<svg width="80" height="80" viewBox="0 0 80 80" fill="none" xmlns="http://www.w3.org/2000/svg">
<circle cx="40" cy="40" r="40" fill="white"/>
<path fill-rule="evenodd" clip-rule="evenodd" d="M51.499 17.1384C49.9482 17.5576 22.637 25.56 22.2445 25.7103C21.1096 26.1449 20.0401 27.1547 19.5027 28.2991C19.0619 29.2378 18.9544 29.8052 19.0159 30.8682C19.0607 31.6407 19.1914 32.1958 19.9128 34.6798L20.7574 37.5872V49.0928C20.7574 61.7698 20.7277 61.0967 21.3397 62.2731C21.7225 63.0089 22.7808 64.0766 23.5055 64.4581C24.6374 65.0541 24.5807 65.0499 31.3538 65.0499H37.4984L37.7411 64.8232C38.1821 64.4113 38.1841 63.8129 37.7458 63.4035L37.5077 63.1812L31.3916 63.1534L25.2755 63.1255L24.7291 62.9035C23.9895 62.603 23.1856 61.793 22.8874 61.0477L22.6671 60.4971L22.6397 53.8088L22.6124 47.1204H40.8309H59.0494L59.0237 53.9026L58.9981 60.6849L58.7565 61.2012C58.2896 62.1983 57.3582 62.8909 56.2371 63.0742C55.8762 63.1331 53.4109 63.1713 49.9315 63.1717L44.2185 63.1725L43.9462 63.4469C43.5627 63.8332 43.5627 64.3891 43.9462 64.7755L44.2185 65.0499H50.3544C57.1108 65.0499 57.0182 65.0569 58.2063 64.4615C59.4476 63.8395 60.5669 62.3582 60.8643 60.9437C60.9759 60.4131 60.998 58.4163 60.9994 48.735C61.0011 36.1859 61.0251 36.7882 60.511 36.4923C60.3446 36.3964 57.1028 36.3626 44.524 36.3252L28.7458 36.2782L43.6856 31.9216C51.9026 29.5255 58.7304 27.5128 58.8586 27.4488C59.2451 27.2563 59.4548 26.9565 59.445 26.6106C59.4299 26.0708 57.8429 20.6598 57.4762 19.8976C56.8467 18.589 55.5341 17.5098 54.1066 17.127C53.4577 16.953 52.1641 16.9587 51.499 17.1384ZM53.8279 19.073C54.6446 19.3209 55.3972 19.9801 55.7792 20.7823C56.0599 21.3721 57.3072 25.8172 57.2158 25.902C57.1031 26.0066 53.7638 26.9639 53.6517 26.9237C53.5539 26.8888 46.9434 20.5209 46.9713 20.4886C47.0089 20.4452 51.5892 19.1206 52.1045 19.0042C52.6768 18.8749 53.2503 18.8978 53.8279 19.073ZM48.1352 24.3341C49.933 26.0772 51.4058 27.5345 51.4082 27.5727C51.4131 27.6527 46.8509 29.009 46.6834 28.9773C46.5524 28.9525 39.9465 22.5898 39.9979 22.5379C40.0656 22.4697 44.6532 21.1298 44.7593 21.1472C44.8183 21.1569 46.3375 22.5911 48.1352 24.3341ZM41.1556 26.4103C42.9578 28.1595 44.398 29.621 44.3559 29.6583C44.3139 29.6956 43.235 30.0305 41.9586 30.4026L39.6377 31.079L39.1173 30.5694C38.831 30.2892 37.3468 28.8536 35.8189 27.3794C34.291 25.905 33.0359 24.664 33.0297 24.6215C33.0167 24.532 37.496 23.1889 37.7255 23.2135C37.8098 23.2226 39.3534 24.6611 41.1556 26.4103ZM34.1376 28.4519C35.9538 30.2138 37.4207 31.6747 37.3974 31.6982C37.374 31.7217 36.2929 32.0523 34.9949 32.4329L32.6348 33.1248L32.2156 32.7188C31.9851 32.4955 30.4969 31.0594 28.9086 29.5275C27.3203 27.9956 26.0097 26.7104 25.9961 26.6716C25.971 26.5999 30.3476 25.2737 30.6639 25.2573C30.7697 25.2518 32.1039 26.4788 34.1376 28.4519ZM30.3394 33.781C30.2697 33.8052 28.4521 34.3397 26.3002 34.9688C23.6484 35.744 22.3688 36.0788 22.3291 36.0077C22.297 35.95 21.9689 34.8467 21.5999 33.5559C21.0619 31.6737 20.9304 31.0883 20.9354 30.599C20.9511 29.0617 21.7777 27.9158 23.226 27.423L23.7703 27.2379L27.1181 30.4874C29.1486 32.4582 30.4161 33.7542 30.3394 33.781ZM30.4947 38.7424C30.3615 38.9876 29.4886 40.5189 28.5551 42.1452L26.8576 45.1022L24.739 45.1274L22.6205 45.1527V41.7246V38.2965H26.6786H30.7368L30.4947 38.7424ZM37.9913 38.3536C37.9913 38.3851 37.1229 39.9269 36.0616 41.78L34.1319 45.1491H31.5938H29.0557L30.2268 43.1074C30.8708 41.9845 31.7529 40.4427 32.1869 39.6811L32.976 38.2965H35.4837C36.8628 38.2965 37.9913 38.3222 37.9913 38.3536ZM45.1286 38.6954C45.0021 38.9149 44.1242 40.4461 43.1777 42.0983L41.4568 45.1022L38.9239 45.1271C37.3698 45.1425 36.4033 45.118 36.4227 45.0638C36.4401 45.0152 37.3136 43.4732 38.364 41.6372L40.2737 38.2989L42.8161 38.2977L45.3585 38.2965L45.1286 38.6954ZM52.6013 38.3757C52.5843 38.4193 51.7109 39.9599 50.6606 41.7992L48.7509 45.1436L46.2069 45.1464C44.8077 45.1479 43.6806 45.1175 43.7022 45.0787C44.0373 44.478 47.0436 39.2303 47.2784 38.8362L47.6 38.2965H50.1162C51.5001 38.2965 52.6185 38.3321 52.6013 38.3757ZM59.0447 41.7228V45.1491H54.997H50.9495L51.7474 43.7645C52.1862 43.0029 53.0702 41.4611 53.7118 40.3382L54.8782 38.2965H56.9614H59.0447V41.7228ZM37.6957 49.4402C37.5586 49.5259 37.4015 49.6957 37.3463 49.8176C37.2106 50.1178 37.2065 60.0125 37.342 60.2676C37.4641 60.4975 37.9102 60.7318 38.2258 60.7318C38.5218 60.7318 46.79 55.9567 47.0974 55.6083C47.2384 55.4484 47.307 55.2512 47.307 55.0056C47.307 54.7581 47.2395 54.5662 47.0974 54.4096C46.9316 54.2268 39.8912 50.0705 38.6657 49.4319C38.2967 49.2396 38.0126 49.242 37.6957 49.4402ZM43.5654 54.5089L44.4351 55.0212L41.9352 56.4767C40.5602 57.2772 39.3619 57.9722 39.2722 58.0211C39.1185 58.1049 39.1092 57.9338 39.1092 55.0122V51.9144L40.9025 52.9555C41.8887 53.5281 43.0871 54.2272 43.5654 54.5089ZM40.2199 63.4469C39.6288 64.0426 40.0301 65.0499 40.8584 65.0499C41.2779 65.0499 41.672 64.7491 41.7705 64.3538C42.0016 63.4257 40.8876 62.7741 40.2199 63.4469Z" fill="#0C0C5C"/>
</svg>
