<svg width="80" height="80" viewBox="0 0 80 80" fill="none" xmlns="http://www.w3.org/2000/svg">
<circle cx="40" cy="40" r="40" fill="white"/>
<path fill-rule="evenodd" clip-rule="evenodd" d="M17.3576 21.224C16.7942 21.4882 16.4497 21.8355 16.1932 22.3976C16.0037 22.8131 16.0023 22.9266 16.0011 37.6531L16 52.4899L16.2215 52.955C16.4788 53.4948 16.8131 53.8277 17.4045 54.1327L17.8264 54.3503L26.7168 54.3763C31.6099 54.3906 35.5936 54.4382 35.5769 54.4821C35.5602 54.526 34.977 56.115 34.2808 58.0133L33.0151 61.4648L31.5512 61.4656C30.095 61.4665 30.086 61.4678 29.8401 61.7117C29.5126 62.0366 29.5055 62.5043 29.8231 62.8194L30.0532 63.0478H40H49.9468L50.1769 62.8194C50.4945 62.5043 50.4874 62.0366 50.1599 61.7117C49.914 61.4678 49.905 61.4665 48.4488 61.4656L46.9849 61.4648L45.7192 58.0133C45.023 56.115 44.4398 54.526 44.4231 54.4821C44.4064 54.4382 48.3901 54.3906 53.2832 54.3763L62.1736 54.3503L62.5955 54.1327C63.1869 53.8277 63.5212 53.4948 63.7785 52.955L64 52.4899L63.9989 37.6531C63.9977 22.9266 63.9963 22.8131 63.8068 22.3976C63.5503 21.8355 63.2058 21.4882 62.6424 21.224L62.1736 21.0042H40H17.8264L17.3576 21.224ZM61.8415 22.6892C62.199 22.8129 62.408 23.219 62.408 23.7899V24.165H61.0892C60.3252 24.165 59.691 24.2072 59.5815 24.2654C59.2982 24.4158 59.128 24.8856 59.2407 25.2064C59.4106 25.69 59.6015 25.7464 61.0694 25.7464H62.408V36.8624V47.9784H53.0278H43.6476L43.4176 48.2245C43.1139 48.5497 43.1139 48.9884 43.4176 49.3136L43.6476 49.5598H53.0366H62.4256L62.3934 50.9061C62.3633 52.161 62.3466 52.2669 62.1475 52.4642L61.934 52.676H40H18.066L17.8525 52.4642C17.6534 52.2669 17.6367 52.161 17.6066 50.9061L17.5744 49.5598H26.9634H36.3524L36.5824 49.3136C36.8861 48.9884 36.8861 48.5497 36.5824 48.2245L36.3524 47.9784H26.9722H17.592V36.8624V25.7464H37.3571C56.8793 25.7464 57.1247 25.7441 57.3201 25.5635C57.7046 25.2081 57.7071 24.7056 57.3263 24.3537C57.1226 24.1654 57.0826 24.165 37.3571 24.165H17.592V23.8068C17.592 23.2384 17.7676 22.8593 18.0968 22.717C18.3398 22.6121 22.0157 22.5903 39.9626 22.5873C55.826 22.5846 61.6171 22.6116 61.8415 22.6892ZM38.6363 48.2068C38.4774 48.3643 38.4061 48.5385 38.4061 48.7691C38.4061 48.9997 38.4774 49.1738 38.6363 49.3314C38.8552 49.5487 38.9214 49.5598 40 49.5598C41.0786 49.5598 41.1448 49.5487 41.3637 49.3314C41.5226 49.1738 41.5939 48.9997 41.5939 48.7691C41.5939 48.5385 41.5226 48.3643 41.3637 48.2068C41.1448 47.9895 41.0786 47.9784 40 47.9784C38.9214 47.9784 38.8552 47.9895 38.6363 48.2068ZM43.9379 57.9549L45.2258 61.4665H39.9997H34.7736L36.0273 58.0479C36.7168 56.1678 37.301 54.5764 37.3255 54.5116C37.3603 54.4197 37.9483 54.3994 40.01 54.4186L42.6501 54.4434L43.9379 57.9549Z" fill="#0C0C5C" stroke="#0C0C5C" stroke-width="0.5"/>
</svg>
